<?xml version="1.0" encoding="UTF-8"?>
<!DOCTYPE svg PUBLIC "-//W3C//DTD SVG 1.1//EN" "http://www.w3.org/Graphics/SVG/1.1/DTD/svg11.dtd">
<svg version="1.1" xmlns="http://www.w3.org/2000/svg" xmlns:xlink="http://www.w3.org/1999/xlink" x="0" y="0" width="555" height="905" viewBox="0, 0, 555, 905">
  <g id="Layer_1">
    <path d="M459.575,395.24 C459.575,395.24 434.68,428.72 426.1,433.005 C417.52,437.3 423.53,429.57 423.53,429.57 L414.09,409.835 L425.25,386.655 L459.575,395.24" fill="#443126"/>
    <path d="M92.98,395.24 C92.98,395.24 117.88,428.72 126.46,433.005 C135.035,437.3 129.035,429.57 129.035,429.57 L138.475,409.835 L127.31,386.655 L92.98,395.24" fill="#443126"/>
    <path d="M94.79,301.385 L475.24,300.77 L488.12,286.22 C497.775,261.24 499.17,204.91 477.3,143.505 C443.31,48.06 365.265,6.61 276.33,6.61 C187.385,6.61 109.345,48.06 75.36,143.505 C53.66,204.425 54.155,259.54 67.105,286.88 L94.79,301.385" fill="#443126"/>
    <path d="M106.655,83.105 C98.375,94.815 87.55,113.985 81.335,128.4 C137.965,146.265 206.875,156.76 281.255,156.76 C351.86,156.76 417.52,147.3 472.445,131.06 C466.405,116.595 459.23,106.905 451.165,95.105 C412.13,124.67 367.495,133.76 281.255,133.76 C183.4,133.76 112.525,104.1 106.655,83.105" fill="#785948"/>
    <path d="M194.575,535.12 C198.305,512.71 208.77,493.28 208.77,493.28 L344.005,493.28 C344.005,493.28 354.475,512.71 358.205,535.12 L194.575,535.12" fill="#443126"/>
    <path d="M103.235,297.435 C98.935,289.725 91.695,282.92 80.57,281.63 C61.14,279.37 45.735,293.18 49.895,329.54 C53.83,363.955 81.055,397.335 106.45,397.385 C106.45,397.385 119.88,395.58 122.21,378.41 C124.525,361.245 103.235,297.435 103.235,297.435" fill="#F8D2B5"/>
    <path d="M276.33,110.495 C276.33,110.495 421.535,154.395 448.34,279.025 C448.34,279.025 451.895,370.72 435.25,410.735 C414.47,460.705 366.755,506.13 276.33,506.13 C185.9,506.13 138.185,460.705 117.4,410.735 C100.76,370.72 104.32,279.025 104.32,279.025 C133.475,149.845 276.33,110.495 276.33,110.495" fill="#F8D2B5"/>
    <path d="M448.93,298.325 C453.055,290.365 460.22,282.4 471.54,281.63 C489.56,280.395 505.6,293.18 501.53,329.54 C497.685,363.955 471.065,397.335 446.26,397.385 C446.26,397.385 436.145,391.295 433.115,379.265 C430.09,367.25 448.93,298.325 448.93,298.325" fill="#F8D2B5"/>
    <path d="M441.005,377.04 L444.255,338.175 C444.255,338.175 453.41,314.06 467.485,310.335 C485.605,305.53 485.96,337.745 473.525,355.925 C454.48,383.76 441.005,377.04 441.005,377.04" fill="#CF957E"/>
    <path d="M111.58,377.04 L108.33,338.175 C108.33,338.175 99.165,314.06 85.085,310.335 C66.955,305.53 66.595,337.745 79.035,355.925 C98.1,383.76 111.58,377.04 111.58,377.04" fill="#CF957E"/>
    <path d="M368.55,306.435 C368.55,325.25 359.1,340.5 347.46,340.5 C335.81,340.5 326.365,325.25 326.365,306.435 C326.365,287.615 335.81,272.37 347.46,272.37 C359.1,272.37 368.55,287.615 368.55,306.435" fill="#1A1919"/>
    <path d="M186.635,306.435 C186.635,325.25 196.08,340.5 207.72,340.5 C219.38,340.5 228.83,325.25 228.83,306.435 C228.83,287.615 219.38,272.37 207.72,272.37 C196.08,272.37 186.635,287.615 186.635,306.435" fill="#1A1919"/>
    <path d="M150.86,304.905 C150.86,304.905 148.735,250.02 194.145,250.02 C227.23,250.02 235.695,281.17 235.695,281.17 C235.695,281.17 244.665,308.67 228.83,329.91 C223.295,337.335 198.82,355.55 171,339.63 C154.525,330.215 151.145,315.595 150.86,304.905" fill="#FFFFFE"/>
    <path d="M400.745,304.905 C400.745,304.905 402.875,250.02 357.465,250.02 C324.37,250.02 315.905,281.17 315.905,281.17 C315.905,281.17 306.93,308.67 322.775,329.91 C328.315,337.335 349.71,355.505 379.975,339.63 C396.765,330.825 400.455,315.595 400.745,304.905" fill="#FFFFFE"/>
    <path d="M363.335,263.375 C380.98,265.735 391.545,273.335 397.79,282.575 C394.575,268.18 385.72,252.9 363.035,249.865 C330.23,245.475 317.705,275.225 317.705,275.225 C317.705,275.225 319.305,276.875 322.425,274.195 C330.55,267.18 343.69,260.735 363.335,263.375" fill="#C7D9E7"/>
    <path d="M189.255,264.21 C171.575,266.355 160.865,273.41 154.515,282.575 C157.9,268.21 166.935,253.045 189.675,250.285 C222.53,246.295 234.68,276.2 234.68,276.2 C234.68,276.2 233.055,277.835 229.975,275.12 C221.925,268.005 208.925,261.82 189.255,264.21" fill="#C7D9E7"/>
    <path d="M413.685,901.5 L424.665,821.93 L426.955,813.83 C469.545,812.34 524.92,725.95 524.92,725.95 C520.435,702.8 486.69,609.42 476.265,588.92 C460.855,558.62 385.415,538.635 339.76,529.11 L212.975,530.28 C169.115,540.805 98.45,561.51 84.735,588.175 C74.22,608.625 33.34,728.485 32.22,739.69 C31.1,750.905 41.885,777.495 64.31,790.94 L123.965,810.65 L139.095,901.5 L413.685,901.5" fill="#F1BDCE"/>
    <path d="M303.29,503.37 L303.885,516.78 L304.405,522.605 C304.405,522.605 322.3,526.615 343.06,530.945 C343.06,530.945 338.06,555.525 315.14,593.025 C309.105,602.905 274.725,643.025 274.725,643.025 C225.69,608.215 205.395,532.115 205.395,532.115 L212.975,530.28 C233.65,525.31 248.37,522.605 248.37,522.605 L248.78,519.31 L249.49,503.37 L303.29,503.37" fill="#F8D2B5"/>
    <path d="M171.83,357.785 C171.83,364.955 159.715,370.775 144.79,370.775 C129.855,370.775 117.75,364.955 117.75,357.785 C117.75,350.6 129.855,344.785 144.79,344.785 C159.715,344.785 171.83,350.6 171.83,357.785" fill="#EC9896"/>
    <path d="M437.1,357.785 C437.1,364.955 424.995,370.775 410.065,370.775 C395.13,370.775 383.03,364.955 383.03,357.785 C383.03,350.6 395.13,344.785 410.065,344.785 C424.995,344.785 437.1,350.6 437.1,357.785" fill="#EC9896"/>
    <path d="M250.14,504.695 L303.475,504.695 L303.89,523.03 L319.725,525.945 C313.055,547.195 278.06,560.945 241.39,552.195 C218,546.615 215.675,532.115 215.675,532.115 L249.31,523.86 L250.14,504.695" fill="#CF957E"/>
    <path d="M276.39,809.545 C215.18,809.545 158.485,798.175 111.995,778.815 C80.765,765.805 106.18,804.41 106.18,804.41 L123.965,810.65 L139.095,901.5 L413.685,901.5 L424.665,821.93 L426.955,813.83 L432.27,782.25 C387.44,799.515 333.9,809.545 276.39,809.545" fill="#EB9CB4"/>
    <path d="M71.81,703.86 C71.81,703.86 60.97,703.445 56.39,707.195 C51.81,710.945 35.975,731.775 34.31,736.36 C32.64,740.945 32.64,753.86 34.72,757.61 C36.81,761.36 52.64,782.605 59.31,784.275 C65.97,785.945 75.14,735.525 75.14,735.525 L71.81,703.86" fill="#EA96AF"/>
    <path d="M490.33,703.86 C490.33,703.86 501.17,703.445 505.75,707.195 C510.33,710.945 526.165,731.775 527.83,736.36 C529.5,740.945 529.5,753.86 527.42,757.61 C525.33,761.36 509.5,782.605 502.83,784.275 C496.17,785.945 487,735.525 487,735.525 L490.33,703.86" fill="#EA96AF"/>
    <path d="M336.89,395.64 C336.89,404.42 310.195,489.19 277.25,489.19 C244.32,489.19 217.61,404.42 217.61,395.64 C217.61,395.64 283.435,402.295 336.89,395.64" fill="#DF7370"/>
    <path d="M277.25,419.975 C295.16,419.975 311.475,427.06 323.98,438.68 C330.955,421.22 336.89,399.14 336.89,395.64 C283.435,402.295 217.61,395.64 217.61,395.64 C217.61,399.14 223.555,421.22 230.52,438.68 C243.03,427.06 259.345,419.975 277.25,419.975" fill="#C2614F"/>
    <path d="M277.34,398.15 C261.825,398.15 247.37,397.47 234.985,396.315 C235.28,403.32 253.76,408.97 276.535,408.97 C299.145,408.97 317.51,403.395 318.07,396.465 C306.045,397.535 292.16,398.15 277.34,398.15" fill="#FFFFFE"/>
    <path d="M103.235,297.435 C98.935,289.725 91.695,282.92 80.57,281.63 C61.14,279.37 45.735,293.18 49.895,329.54 C53.83,363.955 83.07,399.965 114.665,397.81" fill-opacity="0" stroke="#1A1919" stroke-width="7" stroke-linecap="round" stroke-linejoin="round"/>
    <path d="M72.435,299.45 C72.435,299.45 91.01,309.265 105.33,337.515" fill-opacity="0" stroke="#1A1919" stroke-width="6" stroke-linecap="round" stroke-linejoin="round"/>
    <path d="M276.33,111.135 C276.33,111.135 418.72,149.63 448.34,279.025 C448.34,279.025 450.47,370.72 433.83,410.735 C413.05,460.705 360.015,506.13 276.33,506.13 C194.355,506.13 140.89,460.705 120.11,410.735 C103.46,370.72 104.32,279.025 104.32,279.025 C138.68,141.825 276.33,111.135 276.33,111.135 z M448.93,298.325 C453.055,290.365 460.22,282.4 471.54,281.63 C489.56,280.395 505.6,293.18 501.53,329.54 C497.685,363.955 469.915,399.1 440.825,397.81" fill-opacity="0" stroke="#1A1919" stroke-width="7" stroke-linecap="round" stroke-linejoin="round"/>
    <g>
      <path d="M479.505,299.955 C479.505,299.955 461.925,309.455 448.045,336.66" fill-opacity="0" stroke="#1A1919" stroke-width="6" stroke-linecap="round" stroke-linejoin="round"/>
      <path d="M63.25,281.615 C51.66,241.525 53.66,204.425 75.36,143.505 C109.345,48.06 187.385,6.61 276.33,6.61 C365.265,6.61 443.31,48.06 477.3,143.505 C499.17,204.91 497.775,254.01 488.765,283.59" fill-opacity="0" stroke="#1A1919" stroke-width="7" stroke-linecap="round" stroke-linejoin="round"/>
    </g>
    <path d="M368.55,306.435 C368.55,325.25 359.1,340.5 347.46,340.5 C335.81,340.5 326.365,325.25 326.365,306.435 C326.365,287.615 335.81,272.37 347.46,272.37 C359.1,272.37 368.55,287.615 368.55,306.435" fill="#1A1919"/>
    <path d="M186.635,306.435 C186.635,325.25 196.08,340.5 207.72,340.5 C219.38,340.5 228.83,325.25 228.83,306.435 C228.83,287.615 219.38,272.37 207.72,272.37 C196.08,272.37 186.635,287.615 186.635,306.435" fill="#1A1919"/>
    <g>
      <path d="M318.345,276.015 C322.735,266.595 333.81,250.08 357.465,250.08 C402.875,250.08 400.745,307.025 400.745,307.025 M232.835,275.13 C228.18,265.6 217.08,250.08 194.145,250.08 C148.735,250.08 150.86,307.025 150.86,307.025 M220.755,204.98 C212.6,195.475 179.665,187.995 160.64,214.24 M327.825,204.98 C335.98,195.475 368.92,187.995 387.94,214.24 M401.795,296.28 L412.595,292.285 M148.185,296.28 L137.385,292.285 M248.37,522.605 C248.37,522.605 104.91,548.945 84.735,588.175 C74.22,608.625 32.51,728.07 31.39,739.275 C30.265,750.49 33.93,772.365 64.95,788.92 M71.945,701.89 C50.805,699.775 32.805,738.35 32.805,738.35 M489.055,701.89 C510.2,699.775 528.195,738.35 528.195,738.35 M123.965,810.65 L139.095,901.5 M304.405,522.605 C304.405,522.605 453.85,544.84 476.265,588.92 L476.265,588.175 C486.78,608.625 528.49,728.07 529.61,739.275 C530.735,750.49 527.075,772.365 496.05,788.92 M249.49,505.36 L248.37,528.59 M303.29,505.36 L304.405,528.59 M446.39,660.11 L413.685,901.5 M205.395,532.115 C205.395,532.115 224.31,603.44 274.725,641.775" fill-opacity="0" stroke="#1A1919" stroke-width="7" stroke-linecap="round" stroke-linejoin="round"/>
      <path d="M186.675,540.325 C186.675,540.325 206.825,616.31 260.53,657.145" fill-opacity="0" stroke="#1A1919" stroke-width="5" stroke-linecap="round" stroke-linejoin="round"/>
      <path d="M342.045,534.18 C342.045,534.18 338.485,570.355 282.82,634.25 C221.81,704.28 164.31,773.445 135.14,874.28" fill-opacity="0" stroke="#1A1919" stroke-width="7" stroke-linecap="round" stroke-linejoin="round"/>
      <path d="M361.885,534.605 L360.795,544.18 C360.795,544.18 357.235,580.355 301.57,644.25 C240.56,714.28 183.06,783.445 153.89,884.28 C153.89,884.28 151.39,894.485 148.265,901.985" fill-opacity="0" stroke="#1A1919" stroke-width="5" stroke-linecap="round" stroke-linejoin="round"/>
    </g>
    <path d="M344.305,495.945 C344.305,495.945 353.475,509.275 357.43,532.4 M209.065,495.945 C209.065,495.945 198.305,512.71 194.575,535.12" fill-opacity="0" stroke="#1A1919" stroke-width="7" stroke-linecap="round" stroke-linejoin="round"/>
    <path d="M366.52,289.42 C366.52,293.085 363.545,296.065 359.865,296.065 C356.195,296.065 353.215,293.085 353.215,289.42 C353.215,285.745 356.195,282.765 359.865,282.765 C363.545,282.765 366.52,285.745 366.52,289.42" fill="#FFFFFE"/>
    <path d="M226.915,289.42 C226.915,293.085 223.94,296.065 220.27,296.065 C216.6,296.065 213.62,293.085 213.62,289.42 C213.62,285.745 216.6,282.765 220.27,282.765 C223.94,282.765 226.915,285.745 226.915,289.42" fill="#FFFFFE"/>
    <path d="M275.9,370.785 L275.9,361.345" fill-opacity="0" stroke="#1A1919" stroke-width="7" stroke-linecap="round" stroke-linejoin="round"/>
    <path d="M160.795,830.305 C160.795,830.305 184.27,814.08 201.31,816.715 C204.58,817.22 208.22,832.07 203.56,833.39 C188.245,838.815 163.135,836.79 163.135,836.79" fill="#EB9CB4"/>
    <path d="M160.795,830.305 C160.795,830.305 184.27,814.08 201.31,816.715 C204.58,817.22 208.22,832.07 203.56,833.39 C188.245,838.815 163.135,836.79 163.135,836.79" fill-opacity="0" stroke="#1A1919" stroke-width="6" stroke-linecap="round" stroke-linejoin="round"/>
    <path d="M157.925,841.175 C157.925,841.175 173.145,879.545 174.7,886.99 C174.7,886.99 158.94,884.095 157.42,879.36 C155.905,874.635 152.005,841.615 152.005,841.615" fill="#EB9CB4"/>
    <path d="M157.925,841.175 C157.925,841.175 173.145,879.545 174.7,886.99 C174.7,886.99 158.94,884.095 157.42,879.36 C155.905,874.635 152.005,841.615 152.005,841.615" fill-opacity="0" stroke="#1A1919" stroke-width="6" stroke-linecap="round" stroke-linejoin="round"/>
    <path d="M146.655,828.125 C146.655,828.125 129.725,806.76 112.015,803.65 C108.75,803.15 102.385,817.935 106.43,820.605 C114.455,826.3 142.47,833.6 142.47,833.6" fill="#EB9CB4"/>
    <path d="M146.655,828.125 C146.655,828.125 129.725,806.76 112.015,803.65 C108.75,803.15 102.385,817.935 106.43,820.605 C114.455,826.3 142.47,833.6 142.47,833.6" fill-opacity="0" stroke="#1A1919" stroke-width="6" stroke-linecap="round" stroke-linejoin="round"/>
    <path d="M143.85,839.005 C143.85,839.005 117.745,870.98 114.025,877.61 C114.025,877.61 129.925,879.615 132.795,875.555 C135.67,871.51 149.365,841.205 149.365,841.205" fill="#EB9CB4"/>
    <path d="M143.85,839.005 C143.85,839.005 117.745,870.98 114.025,877.61 C114.025,877.61 129.925,879.615 132.795,875.555 C135.67,871.51 149.365,841.205 149.365,841.205" fill-opacity="0" stroke="#1A1919" stroke-width="6" stroke-linecap="round" stroke-linejoin="round"/>
    <path d="M161.15,841.03 C163.585,837.59 163.34,826.83 158.76,825.65 C154.18,824.46 146.215,822.04 142.505,825.995 C139.845,828.825 136.345,835.865 139.095,838.805 C141.955,841.875 158.71,844.465 161.15,841.03" fill="#EB9CB4"/>
    <path d="M161.15,841.03 C163.585,837.59 163.34,826.83 158.76,825.65 C154.18,824.46 146.215,822.04 142.505,825.995 C139.845,828.825 136.345,835.865 139.095,838.805 C141.955,841.875 158.71,844.465 161.15,841.03 z" fill-opacity="0" stroke="#1A1919" stroke-width="6" stroke-linecap="round" stroke-linejoin="round"/>
    <path d="M458.51,394.7 C458.51,394.7 442.09,423.355 420.2,436.23 M94.055,394.7 C94.055,394.7 110.475,423.355 132.355,436.23" fill-opacity="0" stroke="#1A1919" stroke-width="7" stroke-linecap="round" stroke-linejoin="round"/>
    <path d="M336.89,395.64 C336.89,404.42 310.195,489.19 277.25,489.19 C244.32,489.19 217.61,404.42 217.61,395.64 C217.61,395.64 283.435,402.295 336.89,395.64 z" fill-opacity="0" stroke="#1A1919" stroke-width="5" stroke-linecap="round" stroke-linejoin="round"/>
    <path d="M11.165,496.03 C11.165,496.03 62.835,518.235 72.21,527.61 C76.905,532.31 77.94,543.255 77.52,555.11 C76.925,571.985 55.335,718.235 54.085,731.985 C52.835,745.735 50.335,783.86 62.21,800.11 C74.085,816.36 97.26,828.57 114.71,818.235 C145.335,800.11 149.085,770.11 146.585,740.11 C144.085,710.11 128.46,551.985 127.835,537.61 C127.21,523.235 128.385,490.74 121.27,478.235 C112.21,462.3 94.71,453.86 82.835,426.36 C77.725,414.53 68.145,422.61 68.46,435.735 C68.46,435.735 47.21,415.11 39.085,418.86 C30.96,422.61 5.96,470.735 4.085,480.735 C2.21,490.735 4.915,491.03 11.165,496.03" fill="#F8D2B5"/>
    <path d="M118.25,512.61 C107,467.925 60.645,486.36 60.645,486.36 C58.145,482.925 34.085,474.485 34.085,474.485 L51.27,448.55 C48.46,463.86 50.875,481.045 54.92,482.195 C59.295,483.445 66.325,473.65 69.92,463.025 C73.515,452.4 75.96,443.395 75.335,442.3 L68.46,435.735" fill-opacity="0" stroke="#1A1919" stroke-width="6" stroke-linecap="round" stroke-linejoin="round"/>
    <path d="M52.785,776.07 C52.785,776.07 63.55,799.335 97.07,796.44 C128.615,793.715 140.88,779.325 140.88,779.325 C140.88,779.325 129.195,822.23 103.96,822.15 C78.735,822.06 66.985,808.325 62.585,803.335 C58.175,798.335 52.785,776.07 52.785,776.07" fill="#E1A690"/>
    <path d="M11.165,496.03 C11.165,496.03 62.835,518.235 72.21,527.61 C76.905,532.31 77.94,543.255 77.52,555.11 C76.925,571.985 55.335,718.235 54.085,731.985 C52.835,745.735 50.335,783.86 62.21,800.11 C74.085,816.36 97.26,828.57 114.71,818.235 C145.335,800.11 149.085,770.11 146.585,740.11 C144.085,710.11 128.46,551.985 127.835,537.61 C127.21,523.235 128.385,490.74 121.27,478.235 C112.21,462.3 94.71,453.86 82.835,426.36 C77.725,414.53 68.145,422.61 68.46,435.735 C68.46,435.735 47.21,415.11 39.085,418.86 C30.96,422.61 5.96,470.735 4.085,480.735 C2.21,490.735 4.915,491.03 11.165,496.03 z" fill-opacity="0" stroke="#1A1919" stroke-width="7" stroke-linecap="round" stroke-linejoin="round"/>
    <path d="M540.345,496.03 C540.345,496.03 488.675,518.235 479.3,527.61 C474.6,532.31 473.565,543.255 473.985,555.11 C474.58,571.985 496.175,718.235 497.425,731.985 C498.675,745.735 501.175,783.86 489.3,800.11 C477.425,816.36 454.25,828.57 436.8,818.235 C406.175,800.11 402.425,770.11 404.925,740.11 C407.425,710.11 423.05,551.985 423.675,537.61 C424.3,523.235 423.12,490.74 430.235,478.235 C439.3,462.3 456.8,453.86 468.675,426.36 C473.78,414.53 483.36,422.61 483.05,435.735 C483.05,435.735 504.3,415.11 512.425,418.86 C520.55,422.61 545.55,470.735 547.425,480.735 C549.3,490.735 546.595,491.03 540.345,496.03" fill="#F8D2B5"/>
    <path d="M433.26,512.61 C444.51,467.925 490.86,486.36 490.86,486.36 C493.36,482.925 517.425,474.485 517.425,474.485 L500.235,448.55 C503.05,463.86 500.63,481.045 496.59,482.195 C492.215,483.445 485.185,473.65 481.59,463.025 C477.995,452.4 475.55,443.395 476.175,442.3 L483.05,435.735" fill-opacity="0" stroke="#1A1919" stroke-width="6" stroke-linecap="round" stroke-linejoin="round"/>
    <path d="M498.725,776.07 C498.725,776.07 487.96,799.335 454.44,796.44 C422.895,793.715 410.63,779.325 410.63,779.325 C410.63,779.325 422.31,822.23 447.545,822.15 C472.775,822.06 484.525,808.325 488.925,803.335 C493.33,798.335 498.725,776.07 498.725,776.07" fill="#E1A690"/>
    <path d="M540.345,496.03 C540.345,496.03 488.675,518.235 479.3,527.61 C474.6,532.31 473.565,543.255 473.985,555.11 C474.58,571.985 496.175,718.235 497.425,731.985 C498.675,745.735 501.175,783.86 489.3,800.11 C477.425,816.36 454.25,828.57 436.8,818.235 C406.175,800.11 402.425,770.11 404.925,740.11 C407.425,710.11 423.05,551.985 423.675,537.61 C424.3,523.235 423.12,490.74 430.235,478.235 C439.3,462.3 456.8,453.86 468.675,426.36 C473.78,414.53 483.36,422.61 483.05,435.735 C483.05,435.735 504.3,415.11 512.425,418.86 C520.55,422.61 545.55,470.735 547.425,480.735 C549.3,490.735 546.595,491.03 540.345,496.03 z" fill-opacity="0" stroke="#1A1919" stroke-width="7" stroke-linecap="round" stroke-linejoin="round"/>
  </g>
</svg>
